<svg width="279" height="279" viewBox="0 0 279 279" fill="none" xmlns="http://www.w3.org/2000/svg">
<circle cx="139.5" cy="139.5" r="139.5" fill="url(#paint0_radial_1456_208)"/>
<g filter="url(#filter0_d_1456_208)">
<ellipse cx="138" cy="139.5" rx="127" ry="126.5" fill="#513C04"/>
</g>
<g filter="url(#filter1_d_1456_208)">
<path d="M139.08 108.987C138.257 108.164 136.928 108.164 136.105 108.987C135.282 109.81 135.282 111.139 136.105 111.962L144.038 119.895C144.45 120.307 144.992 120.513 145.516 120.513C146.059 120.513 146.583 120.307 146.995 119.895C147.818 119.072 147.818 117.744 146.995 116.92L139.08 108.987Z" fill="url(#paint1_radial_1456_208)"/>
<path d="M212.444 119.596H204.773C204.212 119.596 203.688 119.82 203.295 120.213L192.499 131.009H172.497C171.936 131.009 171.412 131.234 171.019 131.627L167.707 134.939C165.05 128.839 161.645 123.095 157.529 117.818L158.24 117.107C159.063 116.284 159.063 114.956 158.24 114.132L155.508 111.401L159.624 107.284C160.447 106.461 160.447 105.132 159.624 104.309L151.691 96.3759C150.905 95.59 149.502 95.59 148.716 96.3759L144.599 100.492L141.868 97.7418C141.044 96.9185 139.716 96.9185 138.893 97.7418L138.182 98.4528C128.228 90.7252 116.496 85.3927 104.128 83.0351C103.211 82.8667 102.313 83.3158 101.864 84.1204C101.434 84.9436 101.584 85.9353 102.238 86.5902L126.151 110.502L125.889 110.764C125.44 111.213 125.234 111.812 125.29 112.448L125.926 119.184L61.6175 183.493C60.7942 184.316 60.7942 185.645 61.6175 186.449L69.5508 194.383C69.9624 194.794 70.505 195 71.0289 195C71.5715 195 72.1142 194.794 72.5071 194.383L136.816 130.074L143.552 130.71C144.169 130.766 144.805 130.542 145.236 130.111L145.516 129.831L159.156 143.489L155.77 146.876C155.377 147.269 155.152 147.793 155.152 148.354V164.183L148.285 171.05H130.959C130.192 171.05 129.5 171.462 129.126 172.136L118.33 191.838C117.974 192.493 117.974 193.279 118.367 193.915C118.741 194.551 119.434 194.944 120.163 194.944H212.426C213.586 194.944 214.521 193.99 214.521 192.848V121.691C214.54 120.531 213.605 119.596 212.444 119.596ZM150.213 100.829L155.171 105.787L152.551 108.407L147.593 103.449L150.213 100.829ZM71.0289 189.929L66.0706 184.971L128.115 122.926L133.074 127.885L71.0289 189.929ZM146.994 125.377C146.601 124.985 146.078 124.76 145.516 124.76C144.955 124.76 144.431 124.985 144.038 125.377L142.99 126.425L137.003 125.864L130.136 118.997L129.575 112.991L130.623 111.943C131.446 111.12 131.446 109.791 130.623 108.968L110.509 88.8916C120.145 91.7356 129.201 96.5068 137.022 102.887C137.864 103.579 139.08 103.505 139.847 102.738L140.39 102.195L153.805 115.61L153.262 116.153C152.514 116.902 152.439 118.136 153.113 118.96C158.539 125.602 162.786 133.142 165.686 141.188C165.799 141.487 165.911 141.787 166.023 142.105C166.416 143.227 166.772 144.35 167.108 145.491L146.994 125.377ZM210.33 190.734H123.718L132.213 175.242H166.641C167.801 175.242 168.736 174.306 168.736 173.146C168.736 171.986 167.801 171.05 166.641 171.05H154.235L158.763 166.541C159.156 166.148 159.381 165.624 159.381 165.063V149.234L162.15 146.483L169.447 153.78C170.851 155.184 173.376 153.893 172.984 151.891C172.16 147.568 170.963 143.302 169.447 139.167L173.395 135.219H202.266C203.426 135.219 204.361 134.265 204.361 133.124C204.361 131.964 203.426 131.028 202.266 131.028H198.449L205.652 123.806H210.368V190.734H210.33Z" fill="url(#paint2_radial_1456_208)"/>
<path d="M170.907 122.814C172.067 122.814 173.002 121.878 173.002 120.718V114.45C173.002 113.29 172.067 112.355 170.907 112.355C169.747 112.355 168.811 113.29 168.811 114.45V120.718C168.811 121.86 169.747 122.814 170.907 122.814Z" fill="url(#paint3_radial_1456_208)"/>
<path d="M140.97 142.067L134.907 140.44C133.785 140.14 132.643 140.814 132.344 141.918C132.045 143.04 132.699 144.182 133.822 144.481L139.884 146.109C140.071 146.165 140.259 146.184 140.427 146.184C141.362 146.184 142.204 145.566 142.448 144.631C142.747 143.527 142.092 142.367 140.97 142.067Z" fill="url(#paint4_radial_1456_208)"/>
<path d="M130.978 152.265C130.978 153.425 131.914 154.36 133.074 154.36H139.342C140.502 154.36 141.437 153.425 141.437 152.265C141.437 151.105 140.502 150.169 139.342 150.169H133.074C131.914 150.169 130.978 151.105 130.978 152.265Z" fill="url(#paint5_radial_1456_208)"/>
<path d="M139.884 158.402L133.822 160.03C132.699 160.329 132.045 161.489 132.344 162.593C132.587 163.529 133.448 164.146 134.365 164.146C134.552 164.146 134.72 164.127 134.907 164.071L140.97 162.443C142.092 162.144 142.747 160.984 142.448 159.88C142.148 158.776 141.007 158.103 139.884 158.402Z" fill="url(#paint6_radial_1456_208)"/>
<path d="M185.632 126.743C185.969 126.931 186.324 127.024 186.68 127.024C187.409 127.024 188.12 126.65 188.495 125.976L191.638 120.55C192.218 119.54 191.881 118.268 190.871 117.688C189.861 117.107 188.588 117.444 188.008 118.455L184.865 123.881C184.285 124.891 184.622 126.163 185.632 126.743Z" fill="url(#paint7_radial_1456_208)"/>
<path d="M178.522 123.806C178.709 123.862 178.896 123.881 179.065 123.881C180 123.881 180.842 123.263 181.085 122.328L182.713 116.265C183.013 115.143 182.358 114.001 181.235 113.702C180.112 113.403 178.971 114.058 178.672 115.18L177.044 121.242C176.745 122.365 177.399 123.506 178.522 123.806Z" fill="url(#paint8_radial_1456_208)"/>
</g>
<defs>
<filter id="filter0_d_1456_208" x="7" y="13" width="262" height="261" filterUnits="userSpaceOnUse" color-interpolation-filters="sRGB">
<feFlood flood-opacity="0" result="BackgroundImageFix"/>
<feColorMatrix in="SourceAlpha" type="matrix" values="0 0 0 0 0 0 0 0 0 0 0 0 0 0 0 0 0 0 127 0" result="hardAlpha"/>
<feOffset dy="4"/>
<feGaussianBlur stdDeviation="2"/>
<feComposite in2="hardAlpha" operator="out"/>
<feColorMatrix type="matrix" values="0 0 0 0 0 0 0 0 0 0 0 0 0 0 0 0 0 0 0.25 0"/>
<feBlend mode="normal" in2="BackgroundImageFix" result="effect1_dropShadow_1456_208"/>
<feBlend mode="normal" in="SourceGraphic" in2="effect1_dropShadow_1456_208" result="shape"/>
</filter>
<filter id="filter1_d_1456_208" x="57" y="83" width="161.522" height="120" filterUnits="userSpaceOnUse" color-interpolation-filters="sRGB">
<feFlood flood-opacity="0" result="BackgroundImageFix"/>
<feColorMatrix in="SourceAlpha" type="matrix" values="0 0 0 0 0 0 0 0 0 0 0 0 0 0 0 0 0 0 127 0" result="hardAlpha"/>
<feOffset dy="4"/>
<feGaussianBlur stdDeviation="2"/>
<feComposite in2="hardAlpha" operator="out"/>
<feColorMatrix type="matrix" values="0 0 0 0 0 0 0 0 0 0 0 0 0 0 0 0 0 0 0.25 0"/>
<feBlend mode="normal" in2="BackgroundImageFix" result="effect1_dropShadow_1456_208"/>
<feBlend mode="normal" in="SourceGraphic" in2="effect1_dropShadow_1456_208" result="shape"/>
</filter>
<radialGradient id="paint0_radial_1456_208" cx="0" cy="0" r="1" gradientUnits="userSpaceOnUse" gradientTransform="translate(108.836 84.6523) scale(137.108 142.13)">
<stop stop-color="#FFC62D"/>
<stop offset="1" stop-color="#FF9200"/>
</radialGradient>
<radialGradient id="paint1_radial_1456_208" cx="0" cy="0" r="1" gradientUnits="userSpaceOnUse" gradientTransform="translate(140.217 112.054) scale(5.95833 6.18607)">
<stop stop-color="#FFC62D"/>
<stop offset="1" stop-color="#FF9200"/>
</radialGradient>
<radialGradient id="paint2_radial_1456_208" cx="0" cy="0" r="1" gradientUnits="userSpaceOnUse" gradientTransform="translate(120.888 116.982) scale(75.4447 57.0556)">
<stop stop-color="#FFC62D"/>
<stop offset="1" stop-color="#FF9200"/>
</radialGradient>
<radialGradient id="paint3_radial_1456_208" cx="0" cy="0" r="1" gradientUnits="userSpaceOnUse" gradientTransform="translate(170.446 115.528) scale(2.05967 5.32822)">
<stop stop-color="#FFC62D"/>
<stop offset="1" stop-color="#FF9200"/>
</radialGradient>
<radialGradient id="paint4_radial_1456_208" cx="0" cy="0" r="1" gradientUnits="userSpaceOnUse" gradientTransform="translate(136.269 142.133) scale(5.03647 2.9625)">
<stop stop-color="#FFC62D"/>
<stop offset="1" stop-color="#FF9200"/>
</radialGradient>
<radialGradient id="paint5_radial_1456_208" cx="0" cy="0" r="1" gradientUnits="userSpaceOnUse" gradientTransform="translate(135.058 151.441) scale(5.13998 2.1351)">
<stop stop-color="#FFC62D"/>
<stop offset="1" stop-color="#FF9200"/>
</radialGradient>
<radialGradient id="paint6_radial_1456_208" cx="0" cy="0" r="1" gradientUnits="userSpaceOnUse" gradientTransform="translate(136.269 160.095) scale(5.03647 2.9625)">
<stop stop-color="#FFC62D"/>
<stop offset="1" stop-color="#FF9200"/>
</radialGradient>
<radialGradient id="paint7_radial_1456_208" cx="0" cy="0" r="1" gradientUnits="userSpaceOnUse" gradientTransform="translate(187.445 120.323) scale(3.60716 4.90071)">
<stop stop-color="#FFC62D"/>
<stop offset="1" stop-color="#FF9200"/>
</radialGradient>
<radialGradient id="paint8_radial_1456_208" cx="0" cy="0" r="1" gradientUnits="userSpaceOnUse" gradientTransform="translate(179.24 116.74) scale(2.85727 5.22215)">
<stop stop-color="#FFC62D"/>
<stop offset="1" stop-color="#FF9200"/>
</radialGradient>
</defs>
</svg>
