<svg width="30" height="30" viewBox="0 0 30 30" fill="none" xmlns="http://www.w3.org/2000/svg">
<path opacity="0.5" fill-rule="evenodd" clip-rule="evenodd" d="M3.96447 5.21438C2.5 6.67885 2.5 9.03587 2.5 13.7499V16.2499C2.5 20.964 2.5 23.321 3.96447 24.7854C5.42893 26.2499 7.78595 26.2499 12.5 26.2499H17.5C17.6053 26.2499 18.647 26.25 18.75 26.25L18.75 3.74995C18.647 3.74994 17.6053 3.74992 17.5 3.74992H12.5C7.78595 3.74992 5.42893 3.74992 3.96447 5.21438Z" fill="url(#paint0_radial_1423_21080)"/>
<path d="M6.875 11.5625C6.35723 11.5625 5.9375 11.9822 5.9375 12.5C5.9375 13.0178 6.35723 13.4375 6.875 13.4375H14.375C14.8928 13.4375 15.3125 13.0178 15.3125 12.5C15.3125 11.9822 14.8928 11.5625 14.375 11.5625H6.875Z" fill="url(#paint1_radial_1423_21080)"/>
<path d="M8.125 16.5625C7.60723 16.5625 7.1875 16.9822 7.1875 17.5C7.1875 18.0178 7.60723 18.4375 8.125 18.4375H13.125C13.6428 18.4375 14.0625 18.0178 14.0625 17.5C14.0625 16.9822 13.6428 16.5625 13.125 16.5625H8.125Z" fill="url(#paint2_radial_1423_21080)"/>
<path d="M27.5 16.25V13.75C27.5 9.03595 27.5 6.67893 26.0355 5.21447C24.8176 3.99655 22.0449 3.79151 18.75 3.75699V26.243C22.0449 26.2085 24.8176 26.0034 26.0355 24.7855C27.5 23.3211 27.5 20.964 27.5 16.25Z" fill="url(#paint3_radial_1423_21080)"/>
<defs>
<radialGradient id="paint0_radial_1423_21080" cx="0" cy="0" r="1" gradientUnits="userSpaceOnUse" gradientTransform="translate(8.839 10.5767) scale(7.9857 11.4621)">
<stop stop-color="#FFC62D"/>
<stop offset="1" stop-color="#FF9200"/>
</radialGradient>
<radialGradient id="paint1_radial_1423_21080" cx="0" cy="0" r="1" gradientUnits="userSpaceOnUse" gradientTransform="translate(9.59462 13.6485) scale(4.60713 3.5023)">
<stop stop-color="#FFC62D"/>
<stop offset="1" stop-color="#FF9200"/>
</radialGradient>
<radialGradient id="paint2_radial_1423_21080" cx="0" cy="0" r="1" gradientUnits="userSpaceOnUse" gradientTransform="translate(9.59462 13.6485) scale(4.60713 3.5023)">
<stop stop-color="#FFC62D"/>
<stop offset="1" stop-color="#FF9200"/>
</radialGradient>
<radialGradient id="paint3_radial_1423_21080" cx="0" cy="0" r="1" gradientUnits="userSpaceOnUse" gradientTransform="translate(22.1633 10.5768) scale(4.29999 11.4621)">
<stop stop-color="#FFC62D"/>
<stop offset="1" stop-color="#FF9200"/>
</radialGradient>
</defs>
</svg>
